<?xml version="1.0" standalone="no"?>
<!DOCTYPE svg PUBLIC "-//W3C//DTD SVG 20010904//EN"
 "http://www.w3.org/TR/2001/REC-SVG-20010904/DTD/svg10.dtd">
<svg version="1.0" xmlns="http://www.w3.org/2000/svg"
 width="537.000000pt" height="537.000000pt" viewBox="0 0 537.000000 537.000000"
 preserveAspectRatio="xMidYMid meet">
<metadata>
Created by potrace 1.11, written by Peter Selinger 2001-2013
</metadata>
<g transform="translate(0.000000,537.000000) scale(0.100000,-0.100000)"
fill="#000000" stroke="none">
<path d="M2758 5207 c-2 -6 -4 -221 -4 -476 l1 -464 50 -3 c28 -1 131 -5 230
-9 99 -3 194 -7 210 -9 17 -3 73 -7 125 -11 52 -3 109 -8 125 -10 17 -2 57 -7
90 -10 65 -7 64 -7 234 -30 63 -8 116 -14 118 -12 5 6 -50 136 -114 267 -131
269 -311 507 -496 655 -57 46 -91 66 -121 71 -22 3 -48 8 -57 9 -9 2 -40 6
-69 10 -29 4 -62 8 -73 10 -10 3 -67 7 -126 11 -58 3 -109 8 -112 10 -4 2 -9
-2 -11 -9z"/>
<path d="M2547 5204 c-1 -1 -45 -4 -97 -8 -52 -3 -104 -8 -115 -10 -11 -2 -42
-7 -70 -10 -100 -14 -141 -28 -195 -68 -128 -95 -293 -286 -409 -473 -76 -121
-231 -448 -219 -461 2 -2 46 3 98 11 104 16 145 21 235 30 33 3 74 8 91 10 17
3 62 7 100 10 38 2 105 7 149 11 98 7 201 11 368 15 70 1 131 7 134 12 4 7 7
725 4 903 -1 30 -3 32 -36 31 -20 -1 -37 -2 -38 -3z"/>
<path d="M1720 5109 c-488 -203 -899 -543 -1193 -987 -72 -108 -142 -231 -135
-237 2 -2 17 3 33 10 82 39 504 170 645 200 26 6 164 37 180 40 8 2 20 4 26 4
6 1 28 48 48 106 108 306 284 630 447 824 32 39 59 73 59 76 0 9 -13 5 -110
-36z"/>
<path d="M3587 5093 c175 -205 360 -542 463 -843 18 -52 38 -100 44 -106 6 -6
58 -21 116 -33 58 -12 112 -24 120 -26 29 -6 176 -46 230 -62 30 -9 60 -18 65
-19 18 -4 208 -71 293 -103 46 -17 81 -28 79 -23 -144 259 -287 455 -467 639
-251 255 -548 457 -874 592 -54 23 -103 41 -108 41 -6 0 12 -26 39 -57z"/>
<path d="M2427 4134 c-1 -1 -69 -5 -152 -9 -82 -4 -168 -8 -190 -10 -72 -5
-344 -34 -376 -40 -9 -2 -38 -6 -65 -10 -27 -3 -56 -7 -64 -9 -8 -1 -54 -8
-103 -16 l-87 -13 -19 -66 c-56 -189 -113 -481 -136 -701 -3 -25 -7 -63 -10
-85 -3 -22 -7 -94 -10 -160 -3 -66 -8 -145 -9 -176 -2 -31 -1 -61 3 -66 4 -7
240 -11 709 -10 l702 0 1 43 c0 24 0 330 0 679 0 349 0 639 0 644 -1 7 -186
11 -194 5z"/>
<path d="M2763 4127 c-5 -7 -9 -293 -9 -687 l1 -675 709 -1 709 -2 -7 152 c-3
83 -8 174 -11 201 -2 28 -7 75 -10 105 -5 54 -9 93 -21 175 -10 72 -14 99 -35
205 -11 58 -22 114 -25 125 -11 58 -66 273 -73 284 -9 14 -41 21 -206 46 -60
9 -121 18 -135 20 -23 3 -82 10 -170 20 -19 2 -62 6 -95 9 -33 3 -85 8 -116
11 -59 6 -168 11 -375 20 -90 3 -124 1 -131 -8z"/>
<path d="M1165 3979 c-16 -5 -39 -11 -50 -13 -163 -33 -516 -143 -690 -216
-55 -23 -107 -44 -116 -47 -35 -10 -177 -459 -195 -617 -4 -28 -8 -53 -9 -56
-2 -3 -6 -30 -10 -60 -17 -150 -21 -201 -16 -204 3 -2 228 -3 499 -3 445 0
492 1 493 16 1 9 2 45 4 81 6 132 16 296 19 320 3 14 7 57 11 95 4 39 8 77 10
85 2 8 6 38 9 65 9 64 14 97 27 165 24 130 56 271 74 334 8 27 15 53 15 58 0
10 -36 9 -75 -3z"/>
<path d="M4144 3958 c11 -52 13 -59 29 -123 9 -33 18 -71 21 -85 3 -14 10 -50
15 -80 6 -30 13 -66 16 -80 12 -63 25 -139 30 -185 4 -27 8 -61 11 -75 2 -14
7 -54 10 -88 3 -35 7 -80 9 -100 6 -60 17 -273 17 -329 l0 -51 500 0 499 0 -6
81 c-4 45 -8 89 -10 97 -2 9 -7 43 -11 75 -4 33 -8 62 -9 65 -1 3 -5 25 -9 50
-14 78 -66 272 -98 365 -46 136 -72 189 -99 202 -31 16 -247 103 -268 109 -9
2 -77 24 -151 49 -110 37 -331 97 -474 130 -28 6 -29 5 -22 -27z"/>
<path d="M85 2546 c5 -61 13 -123 31 -236 26 -168 100 -427 166 -581 22 -53
22 -53 243 -136 108 -41 338 -116 390 -128 64 -14 274 -67 297 -74 15 -5 29
-7 31 -5 2 2 -2 28 -10 57 -8 28 -16 63 -19 77 -3 14 -9 39 -14 55 -8 27 -40
191 -54 275 -3 19 -8 44 -10 55 -2 11 -7 47 -11 80 -4 32 -8 67 -10 76 -2 9
-6 52 -10 95 -4 43 -9 86 -10 95 -2 8 -6 87 -10 175 -3 87 -8 166 -11 175 -4
15 -52 16 -499 16 l-495 0 5 -71z"/>
<path d="M1214 2608 c-14 -22 17 -461 42 -608 2 -14 7 -44 10 -66 2 -23 7 -53
9 -65 6 -29 23 -123 31 -164 8 -48 71 -297 82 -326 9 -24 18 -27 114 -42 56
-9 121 -19 143 -22 23 -3 50 -7 60 -9 11 -2 51 -7 88 -11 37 -3 76 -8 85 -10
9 -1 55 -6 102 -9 47 -4 101 -9 120 -11 55 -7 284 -17 410 -19 l115 -1 2 686
2 687 -705 -1 c-407 0 -707 -4 -710 -9z"/>
<path d="M2760 1928 l0 -688 118 5 c321 14 517 27 612 40 14 2 52 7 85 10 33
3 71 8 85 10 14 3 43 7 65 10 22 3 51 8 65 10 14 3 41 7 60 10 66 10 143 25
145 27 7 9 77 301 94 388 24 129 33 181 36 200 1 8 5 42 9 75 4 33 9 71 11 85
12 87 24 248 30 411 l3 97 -709 -1 -709 0 0 -689z"/>
<path d="M4309 2571 c-3 -115 -16 -330 -24 -381 -2 -14 -6 -56 -10 -93 -3 -37
-8 -76 -10 -86 -2 -10 -6 -42 -10 -72 -4 -30 -8 -56 -10 -59 -2 -3 -6 -27 -9
-55 -4 -27 -11 -68 -16 -90 -5 -22 -12 -56 -15 -75 -3 -19 -19 -87 -35 -150
-16 -63 -28 -116 -26 -118 3 -2 29 3 106 22 8 2 44 12 80 21 36 9 76 19 88 21
112 21 647 213 672 241 6 7 63 150 65 163 0 3 11 34 23 70 26 77 88 333 98
405 3 28 8 58 10 68 2 14 16 170 16 187 0 3 0 10 -1 16 -1 8 -136 12 -496 12
l-495 0 -1 -47z"/>
<path d="M4963 1495 c-138 -58 -466 -162 -633 -200 -8 -2 -64 -15 -124 -29
-59 -14 -109 -26 -111 -28 -1 -2 -12 -32 -25 -68 -136 -379 -263 -611 -503
-917 -23 -29 -23 -29 65 6 485 193 908 535 1207 976 70 104 165 264 159 270
-2 2 -17 -3 -35 -10z"/>
<path d="M390 1494 c0 -2 11 -22 25 -44 14 -22 25 -42 25 -45 0 -17 215 -330
250 -365 3 -3 20 -23 39 -45 80 -95 252 -264 331 -325 25 -19 54 -43 65 -53
43 -39 275 -188 375 -241 100 -52 312 -146 331 -146 5 0 -21 37 -58 83 -171
211 -321 486 -438 805 l-42 116 -49 13 c-27 7 -62 15 -79 18 -135 24 -534 141
-707 208 -38 14 -68 24 -68 21z"/>
<path d="M1449 1187 c144 -377 365 -704 611 -903 74 -59 92 -65 275 -89 100
-12 153 -17 219 -19 l75 -3 0 471 0 471 -147 3 c-81 2 -169 5 -197 6 -27 2
-102 7 -165 10 -63 4 -126 9 -140 11 -14 2 -56 7 -95 10 -74 6 -89 8 -225 26
-47 6 -101 13 -120 15 -19 2 -49 6 -67 9 -30 4 -32 3 -24 -18z"/>
<path d="M3889 1206 c-6 -6 -339 -47 -494 -61 -180 -15 -302 -22 -497 -26
l-138 -3 0 -473 c0 -471 0 -476 30 -475 33 0 211 14 230 17 14 2 43 7 65 10
131 18 166 28 211 60 81 58 214 192 300 305 109 142 250 393 309 550 16 41 33
81 38 88 7 9 2 12 -20 12 -16 0 -32 -2 -34 -4z"/>
</g>
</svg>
