<svg id="Layer_1" data-name="Layer 1" xmlns="http://www.w3.org/2000/svg" viewBox="0 0 1366.1 235.99"><defs><style>.cls-1{fill:#fff;}</style></defs><title>optiPortallogo-white</title><path class="cls-1" d="M320.48,175.75c-34,0-53.92-20.16-53.92-56.55,0-39.45,20.16-60.28,58.52-60.28,35.95,0,52.61,19.51,52.61,55.46C377.69,154.05,358,175.75,320.48,175.75Zm2.19-94.69c-18.41,0-25.86,13.81-25.86,34.64,0,29.59,10.08,37.48,24.76,37.48,14.91,0,25.21-8.33,25.21-35.07C346.78,95.53,343.27,81.06,322.67,81.06Z"/><path class="cls-1" d="M390.84,226.17V206.44l18.63-2V85.89H389.74V66.6a188.29,188.29,0,0,1,47.57-7.46L438,74.05c8.33-7,23.68-14.91,38.58-14.91,22.8,0,35.95,18,35.95,53.92,0,41.87-21.7,61.16-55.24,61.16A90.59,90.59,0,0,1,438,172.47v32l22.58,2v19.73Zm65.1-75c16,0,25.64-10.31,25.64-35.08q0-31.56-19.72-31.56c-8.77,0-16,2.63-23.9,6.14v57.86A62,62,0,0,0,455.94,151.21Z"/><path class="cls-1" d="M573.64,174c-10.74,0-19.72-3.94-24.11-10.3-4.16-5.92-6.14-16.66-6.14-30.91V85.67h-20.6V64.4a142,142,0,0,1,20.82-2c0-5.48.44-12.49,1.32-27.4l27.4-1.75V62.43h27.18V85.67H572.33v41c0,9.64.87,14.46,3.29,18,2,3.07,6.13,4.38,11.39,4.38a103.93,103.93,0,0,0,14.91-1.31l3.72,21.7C597.75,172,586.36,174,573.64,174Z"/><path class="cls-1" d="M620.77,172.25V152.52l18.63-2V86.32H619.67V66.82c14.91-4.39,32.88-7.46,48.22-7.46v91.19l18.63,2v19.73Zm28.49-126c-8.11,0-15.78-4.16-15.78-16.22,0-11.84,7.67-16.44,16.22-16.44,9.21,0,16,3.95,16,16.44C665.7,41.17,658.91,46.21,649.26,46.21Z"/><path class="cls-1" d="M697.26,172.25V152.3l21.7-2V46l-21.7-2v-20h57c12.5,0,31.35.88,40.55,3.07,20.83,5.26,30.91,17.54,30.91,40.77,0,21-10.3,36.17-29.81,42.52-9.86,3.29-21.92,4.17-34,4.17H749.43v36l25,1.75v19.95Zm64.88-82.2c6.36,0,14.47-.66,19.07-2.41,7.46-3.07,12.06-9.43,12.06-19.29,0-7.67-3.51-13.37-9.65-16.22-4.38-2.19-12-3.29-20.16-3.29h-14V90.05Z"/><path class="cls-1" d="M897,175.75c-34,0-53.92-20.16-53.92-56.55,0-39.45,20.16-60.28,58.52-60.28,36,0,52.61,19.51,52.61,55.46C954.16,154.05,934.43,175.75,897,175.75Zm2.19-94.69c-18.41,0-25.86,13.81-25.86,34.64,0,29.59,10.08,37.48,24.76,37.48,14.91,0,25.21-8.33,25.21-35.07C923.25,95.53,919.74,81.06,899.14,81.06Z"/><path class="cls-1" d="M972.79,172.25V152.52l18.63-2V86.32H971.69V67c12.72-4.38,34.2-7.45,48-7.67V78.65a38.88,38.88,0,0,1,32.87-19.07c2,0,5,.22,7,.44V86.54c-2-.22-9.43-.65-11.18-.65a51.65,51.65,0,0,0-28.5,8.54v55.9l22.14,2.19v19.73Z"/><path class="cls-1" d="M1118.33,174c-10.74,0-19.73-3.94-24.11-10.3-4.17-5.92-6.14-16.66-6.14-30.91V85.67h-20.6V64.4a141.84,141.84,0,0,1,20.82-2c0-5.48.44-12.49,1.32-27.4L1117,33.28V62.43h27.18V85.67H1117v41c0,9.64.88,14.46,3.29,18,2,3.07,6.14,4.38,11.4,4.38a104,104,0,0,0,14.91-1.31l3.72,21.7C1142.44,172,1131,174,1118.33,174Z"/><path class="cls-1" d="M1275.49,169.18c-10.3,2.63-28.94,5-43.4,5l-1.76-13.81a43,43,0,0,1-32.22,14c-24.55,0-35.29-17.1-35.29-34.41,0-15.13,8.11-24.55,21-28.5,12.27-3.94,27.83-5.7,44.93-6.14V101c0-5.7-.44-11-2.19-13.37-2.19-3.07-6.14-4.17-13.59-4.17a164.88,164.88,0,0,0-37.48,5l-4-20.39c16.44-5.7,38.14-9.21,50.85-9.21,14,0,24.33,3.29,29.16,11.18,3.5,5.92,5.26,14.69,5.26,30.47v50.2h18.63ZM1229,123.59c-7,.43-20.17,1.31-27.84,3.94a12.9,12.9,0,0,0-8.77,12.28c0,8.55,5.48,12.93,14.25,12.93,7.67,0,16.66-3.07,22.36-8.77Z"/><path class="cls-1" d="M1286,172.25V152.52l17.75-2V37H1284V17.72c16.22-4.39,33.76-7.89,48.45-7.89V150.55l18.63,2v19.73Z"/><path class="cls-1" d="M89.31,119.72c-8.88,0-17.77,0-26.65.08-1.63,0-2.17-.48-2-2.07.55-6.51.79-13.06,1.63-19.53.92-7.18,2.3-14.29,3.61-21.41a60.74,60.74,0,0,1,2-7.09,1.8,1.8,0,0,1,1.21-1c3.13-.59,6.26-1.18,9.42-1.6,5.47-.73,11-1.38,16.44-2,2-.24,4.12-.39,6.19-.46,5-.19,10.06-.27,15.08-.47,1.44-.06,1.84.46,1.84,1.85q0,25.86.09,51.71c0,1.52-.48,1.94-2,1.94C107.22,119.66,98.27,119.71,89.31,119.72Z"/><path class="cls-1" d="M89.67,125.7c8.75,0,17.51,0,26.26-.07,1.59,0,2.24.31,2.24,2.09q-.06,25.65.07,51.32c0,1.54-.33,2.18-2,2.09-6.76-.33-13.55-.27-20.28-.88-8.47-.77-16.9-2.07-25.35-3.13a3.07,3.07,0,0,1-2.95-2.68C66,166.16,64,158,62.81,149.61c-1.05-7.25-1.18-14.63-1.76-22-.12-1.53.45-2,2-1.94C71.89,125.76,80.78,125.72,89.67,125.7Z"/><path class="cls-1" d="M151.94,119.62c-8.82,0-17.64,0-26.46.07-1.6,0-2.24-.31-2.23-2.09q0-25.66-.08-51.32c0-1.54.34-2.2,2-2.09,7,.45,14,.7,21,1.21,5.38.39,10.75,1,16.11,1.61,3.36.4,6.7,1,10,1.63a1.57,1.57,0,0,1,1,1c1.67,7.51,3.49,15,4.88,22.58a131.11,131.11,0,0,1,2.13,24.31c0,3,.11,3-3,3Z"/><path class="cls-1" d="M152.33,125.6c8.75,0,17.5,0,26.24-.07,1.59,0,2.38.29,2.22,2.08-.69,7.7-.94,15.46-2.06,23.09-1.16,8-3.14,15.87-4.74,23.8-.25,1.23-.64,1.94-2.13,2.13-6.79.84-13.54,2-20.34,2.76-5.83.64-11.71.89-17.57,1.28-2.67.18-5.34.22-8,.44-1.65.14-2.2-.4-2.19-2.12.06-9.55,0-19.11,0-28.67l0-22c0-2.67,0-2.67,2.58-2.68Z"/><path class="cls-1" d="M62.05,70c-.79,3.42-1.68,6.67-2.27,10-1.13,6.4-2.34,12.81-3.06,19.26-.71,6.29-.88,12.65-1.22,19-.06,1.12-.39,1.54-1.54,1.54q-18.76,0-37.54.06c-1,0-1.57-.23-1.39-1.37.79-5.25,1.18-10.6,2.43-15.73,1.64-6.69,3.94-13.22,6-19.8a2.34,2.34,0,0,1,1.25-1.16A192.15,192.15,0,0,1,62.05,70Z"/><path class="cls-1" d="M62.25,175.46c-3.67-.87-7.4-1.52-11-2.65-8.11-2.58-16.09-5.55-24.22-8-3.09-.94-3.75-3.31-4.67-5.65a112.88,112.88,0,0,1-6.12-23.29c-.44-2.69-.58-5.43-.88-8.14-.15-1.35.27-1.92,1.76-1.92q18.29,0,36.57-.06c1.72,0,1.72.82,1.79,2.11.56,10.25,1.08,20.51,3.2,30.6C59.88,164,61,169.58,62.25,175.46Z"/><path class="cls-1" d="M179.56,175c1.19-5.45,2.4-10.41,3.32-15.42.8-4.31,1.46-8.66,1.84-13,.56-6.52.85-13.07,1.2-19.61.06-1.06.47-1.39,1.47-1.39q18.78,0,37.57-.07c1.58,0,1.56.9,1.45,2a126.24,126.24,0,0,1-5.23,26.33c-.91,2.78-2,5.49-3.19,8.18a3.21,3.21,0,0,1-1.7,1.47c-7.16,2.66-14.3,5.4-21.55,7.8-4.34,1.44-8.86,2.32-13.3,3.43C180.9,174.78,180.34,174.83,179.56,175Z"/><path class="cls-1" d="M179.2,70c4,1,7.82,1.57,11.44,2.78,8.64,2.87,17.19,6,25.75,9.09a2.79,2.79,0,0,1,1.46,1.41,100.28,100.28,0,0,1,7.35,27.25c.29,2.45.54,4.9.82,7.35.14,1.23-.4,1.64-1.62,1.64q-18.39,0-36.77.06c-1.35,0-1.69-.47-1.73-1.76-.46-15.5-2.25-30.81-6.44-45.78A17.29,17.29,0,0,1,179.2,70Z"/><path class="cls-1" d="M170.79,62.78c-3.93-.55-7.86-1.14-11.8-1.63-3-.38-6.09-.75-9.15-.91-8.41-.46-16.83-.82-25.25-1.18-1,0-1.42-.42-1.42-1.45,0-11.91,0-23.82,0-35.73,0-.43.85-1.24,1.24-1.21,3.72.28,7.42,1,11.12,1,7.37,0,12.39,4.12,16.74,9.19a101.24,101.24,0,0,1,10,13.64c3.4,5.66,6.09,11.76,9.09,17.67Z"/><path class="cls-1" d="M70.08,62.67c.44-1.2.8-2.25,1.21-3.27A92.11,92.11,0,0,1,85.9,34.34a73.19,73.19,0,0,1,10.26-9.8c1.62-1.32,4.09-1.86,6.26-2.18,4.54-.66,9.14-.92,13.71-1.38,1.42-.14,1.85.42,1.85,1.83q0,17.25,0,34.51c0,1.3-.39,1.75-1.72,1.76-5.23.08-10.46.12-15.68.45-5.38.34-10.74,1-16.1,1.55-4.42.49-8.83,1.12-13.24,1.68A7.83,7.83,0,0,1,70.08,62.67Z"/><path class="cls-1" d="M171.83,182.35c-2.39,5.16-4.33,10.06-6.86,14.64a87.41,87.41,0,0,1-8.43,12.81,114,114,0,0,1-11,11.13c-2.37,2.21-5.68,2.11-8.67,2.53-3.88.56-7.81.82-11.71,1.24-1.37.15-1.34-.7-1.34-1.63q0-7.57,0-15.14c0-6.53,0-13.05-.06-19.58,0-1.51.29-2.13,2-2.13,4.83,0,9.66-.06,14.47-.43,6.57-.5,13.11-1.28,19.66-2C163.66,183.39,167.41,182.89,171.83,182.35Z"/><path class="cls-1" d="M70,182.69c1.91.18,3.19.29,4.46.43,6.74.78,13.47,1.6,20.22,2.35,2.12.24,4.26.35,6.39.42,5.1.16,10.19.31,15.29.36,1.37,0,1.88.37,1.87,1.82q0,17.27.06,34.53c0,1.51-.6,1.9-1.92,1.75-5.88-.68-11.83-1-17.61-2.2-2.17-.44-4.09-2.64-5.9-4.29a74.39,74.39,0,0,1-16.11-21.28C74.52,192.17,72.43,187.67,70,182.69Z"/><path class="cls-1" d="M155.19,222.23c9.2-10.4,15.21-22,19.94-34.29a18.19,18.19,0,0,0,1.17-3.18c.5-2.73,1.95-3.92,4.78-4.5a183.18,183.18,0,0,0,33.24-10.12,108.31,108.31,0,0,1-24.57,31.72A102.88,102.88,0,0,1,155.19,222.23Z"/><path class="cls-1" d="M155.16,23.32C181.24,32.78,200.54,50,214,74.8c-4.13-1.51-7.65-3.06-11.31-4.1-8-2.28-16-4.34-24.05-6.38a2.38,2.38,0,0,1-1.91-1.64c-2.89-6.86-5.67-13.77-8.89-20.48A84.07,84.07,0,0,0,155.16,23.32Z"/><path class="cls-1" d="M27.79,171.07c5.25,1.77,10,3.57,14.8,4.93,6.7,1.88,13.51,3.39,20.25,5.17a3.56,3.56,0,0,1,2,1.82c3,6.68,5.54,13.54,8.74,20.11a77.84,77.84,0,0,0,13,18.86c-6-.44-26-12.37-34.06-19.54A115.39,115.39,0,0,1,27.79,171.07Z"/><path class="cls-1" d="M27.3,74.74C40.72,50.08,59.88,32.89,85.93,23.1,83.26,26.73,80.64,30,78.3,33.53a115.82,115.82,0,0,0-12.8,26.1,12,12,0,0,1-1.09,2.77,4.56,4.56,0,0,1-2.13,1.94C53,67,43.73,69.48,34.47,72.1,32.21,72.74,30,73.72,27.3,74.74Z"/></svg>